<svg width="72" height="72" viewBox="0 0 72 72" fill="none" xmlns="http://www.w3.org/2000/svg">
<path fill-rule="evenodd" clip-rule="evenodd" d="M72 36C72 55.882 55.882 72 36 72C16.118 72 0 55.882 0 36C0 16.118 16.118 0 36 0C55.882 0 72 16.118 72 36Z" fill="#F4F4F9"/>
<path opacity="0.3" d="M36.0019 56.4569C47.2989 56.4569 56.4569 47.2989 56.4569 36.0019C56.4569 24.7049 47.2989 15.5469 36.0019 15.5469C24.7049 15.5469 15.5469 24.7049 15.5469 36.0019C15.5469 47.2989 24.7049 56.4569 36.0019 56.4569Z" fill="#9F9FCD"/>
<g clip-path="url(#clip0_205_126)">
<path d="M28.4887 34.1515V42.8181H24.1554V34.1515H28.4887ZM29.2109 32.707H23.4332C23.2416 32.707 23.0579 32.7832 22.9225 32.9186C22.787 33.054 22.7109 33.2377 22.7109 33.4293V43.5404C22.7109 43.7319 22.787 43.9156 22.9225 44.051C23.0579 44.1865 23.2416 44.2626 23.4332 44.2626H29.2109C29.4025 44.2626 29.5862 44.1865 29.7216 44.051C29.8571 43.9156 29.9332 43.7319 29.9332 43.5404V33.4293C29.9332 33.2377 29.8571 33.054 29.7216 32.9186C29.5862 32.7832 29.4025 32.707 29.2109 32.707Z" fill="#25258E"/>
<rect x="34" y="28" width="5" height="9" fill="white"/>
<path d="M38.602 28.3702V37.0369H34.2687V28.3702H38.602ZM39.3242 26.9258H33.5464C33.3549 26.9258 33.1712 27.0019 33.0358 27.1373C32.9003 27.2728 32.8242 27.4565 32.8242 27.648V37.7591C32.8242 37.9506 32.9003 38.1344 33.0358 38.2698C33.1712 38.4052 33.3549 38.4813 33.5464 38.4813H39.3242C39.5158 38.4813 39.6995 38.4052 39.8349 38.2698C39.9703 38.1344 40.0464 37.9506 40.0464 37.7591V27.648C40.0464 27.4565 39.9703 27.2728 39.8349 27.1373C39.6995 27.0019 39.5158 26.9258 39.3242 26.9258Z" fill="#25258E"/>
<path d="M27.046 28.3711H25.6016V33.4266H27.046V28.3711ZM27.046 43.5378H25.6016V48.5933H27.046V43.5378Z" fill="#25258E"/>
<path d="M37.1554 22.5938H35.7109V27.6493H37.1554V22.5938ZM37.1554 37.7604H35.7109V42.816H37.1554V37.7604Z" fill="#25258E"/>
<path d="M29.3789 33.9258H23.3789V43.2591H29.3789V33.9258Z" fill="#25258E"/>
</g>
<path d="M48.7114 34.1515V42.8181H44.378V34.1515H48.7114ZM49.4336 32.707H43.6558C43.4643 32.707 43.2806 32.7832 43.1451 32.9186C43.0097 33.054 42.9336 33.2377 42.9336 33.4293V43.5404C42.9336 43.7319 43.0097 43.9156 43.1451 44.051C43.2806 44.1865 43.4643 44.2626 43.6558 44.2626H49.4336C49.6251 44.2626 49.8088 44.1865 49.9443 44.051C50.0797 43.9156 50.1558 43.7319 50.1558 43.5404V33.4293C50.1558 33.2377 50.0797 33.054 49.9443 32.9186C49.8088 32.7832 49.6251 32.707 49.4336 32.707Z" fill="#25258E"/>
<path d="M47.2687 28.3711H45.8242V33.4266H47.2687V28.3711ZM47.2687 43.5378H45.8242V48.5933H47.2687V43.5378Z" fill="#25258E"/>
<path d="M49.5977 33.9258H43.5977V43.2591H49.5977V33.9258Z" fill="#25258E"/>
<defs>
<clipPath id="clip0_205_126">
<rect width="17.3333" height="26" fill="white" transform="translate(22.7109 22.5938)"/>
</clipPath>
</defs>
</svg>
