<svg width="72" height="72" viewBox="0 0 72 72" fill="none" xmlns="http://www.w3.org/2000/svg">
<path fill-rule="evenodd" clip-rule="evenodd" d="M72 36C72 55.882 55.882 72 36 72C16.118 72 0 55.882 0 36C0 16.118 16.118 0 36 0C55.882 0 72 16.118 72 36Z" fill="#F4F4F9"/>
<path opacity="0.3" d="M36 55C46.4934 55 55 46.4934 55 36C55 25.5066 46.4934 17 36 17C25.5066 17 17 25.5066 17 36C17 46.4934 25.5066 55 36 55Z" fill="#9F9FCD"/>
<rect x="27" y="27" width="18" height="21" fill="white"/>
<rect x="32" y="24" width="8" height="4" fill="white"/>
<path d="M31.7526 26.0833H28.9193C27.3545 26.0833 26.0859 27.3519 26.0859 28.9167V45.9167C26.0859 47.4815 27.3545 48.75 28.9193 48.75H43.0859C44.6507 48.75 45.9193 47.4815 45.9193 45.9167V28.9167C45.9193 27.3519 44.6507 26.0833 43.0859 26.0833H40.2526M31.7526 26.0833C31.7526 27.6481 33.0211 28.9167 34.5859 28.9167H37.4193C38.9841 28.9167 40.2526 27.6481 40.2526 26.0833M31.7526 26.0833C31.7526 24.5185 33.0211 23.25 34.5859 23.25H37.4193C38.9841 23.25 40.2526 24.5185 40.2526 26.0833M36.0026 36H40.2526M36.0026 41.6667H40.2526M31.7526 36H31.7668M31.7526 41.6667H31.7668" stroke="#25258E" stroke-width="2.83333" stroke-linecap="round"/>
</svg>
