<svg width="72" height="72" viewBox="0 0 72 72" fill="none" xmlns="http://www.w3.org/2000/svg">
<path fill-rule="evenodd" clip-rule="evenodd" d="M72 36C72 55.882 55.882 72 36 72C16.118 72 0 55.882 0 36C0 16.118 16.118 0 36 0C55.882 0 72 16.118 72 36Z" fill="#F4F4F9"/>
<path opacity="0.3" d="M36.0019 56.4569C47.2989 56.4569 56.4569 47.2989 56.4569 36.0019C56.4569 24.7049 47.2989 15.5469 36.0019 15.5469C24.7049 15.5469 15.5469 24.7049 15.5469 36.0019C15.5469 47.2989 24.7049 56.4569 36.0019 56.4569Z" fill="#9F9FCD"/>
<rect x="23.2734" y="36" width="5.45455" height="11.8182" fill="white"/>
<rect x="43.2734" y="36" width="5.45455" height="11.8182" fill="white"/>
<path fill-rule="evenodd" clip-rule="evenodd" d="M36.0013 21.418C27.9472 21.418 21.418 27.9472 21.418 36.0013V44.421C21.418 44.4246 21.418 44.4285 21.418 44.4323V44.7513C21.418 46.8223 23.097 48.5013 25.168 48.5013H26.8347C28.9058 48.5013 30.5847 46.8223 30.5847 44.7513V38.918C30.5847 36.847 28.9058 35.168 26.8347 35.168H25.168C24.7357 35.168 24.3204 35.2411 23.9339 35.3758C24.2594 28.9931 29.5377 23.918 36.0013 23.918C42.465 23.918 47.7433 28.993 48.0688 35.3756C47.6825 35.2411 47.2673 35.168 46.835 35.168H45.1683C43.0973 35.168 41.4183 36.847 41.4183 38.918V44.7513C41.4183 46.8223 43.0973 48.5013 45.1683 48.5013H46.835C48.9061 48.5013 50.585 46.8223 50.585 44.7513V38.918C50.585 38.9043 50.585 38.8906 50.5848 38.877V36.0013C50.5848 27.9472 44.0556 21.418 36.0013 21.418ZM48.0848 38.8943V44.421C48.0848 44.4288 48.0848 44.4366 48.085 44.4446V44.7513C48.085 45.4416 47.5253 46.0013 46.835 46.0013H45.1683C44.478 46.0013 43.9183 45.4416 43.9183 44.7513V38.918C43.9183 38.2276 44.478 37.668 45.1683 37.668H46.835C47.5175 37.668 48.0721 38.2148 48.0848 38.8943ZM26.8347 37.668C27.525 37.668 28.0847 38.2276 28.0847 38.918V44.7513C28.0847 45.4416 27.525 46.0013 26.8347 46.0013H25.168C24.4777 46.0013 23.918 45.4416 23.918 44.7513V38.918C23.918 38.2276 24.4777 37.668 25.168 37.668H26.8347Z" fill="#25258E"/>
</svg>
