<svg width="72" height="72" viewBox="0 0 72 72" fill="none" xmlns="http://www.w3.org/2000/svg">
<path fill-rule="evenodd" clip-rule="evenodd" d="M72 36C72 55.882 55.882 72 36 72C16.118 72 0 55.882 0 36C0 16.118 16.118 0 36 0C55.882 0 72 16.118 72 36Z" fill="#F4F4F9"/>
<path opacity="0.3" d="M36.0019 56.4569C47.2989 56.4569 56.4569 47.2989 56.4569 36.0019C56.4569 24.7049 47.2989 15.5469 36.0019 15.5469C24.7049 15.5469 15.5469 24.7049 15.5469 36.0019C15.5469 47.2989 24.7049 56.4569 36.0019 56.4569Z" fill="#9F9FCD"/>
<path d="M35.8594 23.582L49.246 29.8292L35.8594 36.0763L22.4727 29.8292L35.8594 23.582Z" fill="white"/>
<path fill-rule="evenodd" clip-rule="evenodd" d="M36.3684 22.1054C36.0434 21.9649 35.6749 21.9649 35.3499 22.1054L19.5276 28.9475C19.058 29.1506 18.7539 29.6133 18.7539 30.125C18.7539 30.6367 19.058 31.0994 19.5276 31.3025L24.0993 33.2794V43.6858C24.0993 43.9351 24.172 44.1791 24.3084 44.3878L25.3822 43.6858C24.3084 44.3878 24.3081 44.3872 24.3084 44.3878L24.3099 44.39L24.3117 44.3927L24.3163 44.3997L24.3293 44.4191C24.3397 44.4345 24.3535 44.4545 24.3707 44.4791C24.4051 44.5282 24.4533 44.5954 24.5154 44.6779C24.6396 44.8427 24.8198 45.0697 25.0571 45.3378C25.5309 45.8732 26.2374 46.5782 27.1856 47.2818C29.0883 48.6935 31.9693 50.1002 35.8591 50.1002C39.749 50.1002 42.6299 48.6935 44.5327 47.2818C45.4808 46.5782 46.1873 45.8732 46.6612 45.3378C46.8985 45.0697 47.0786 44.8427 47.2028 44.6779C47.2649 44.5954 47.3131 44.5282 47.3475 44.4791C47.3648 44.4545 47.3786 44.4345 47.3889 44.4191L47.4019 44.3997L47.4065 44.3927L47.4084 44.39C47.4087 44.3895 47.4098 44.3878 46.3361 43.6858L47.4098 44.3878C47.5463 44.1791 47.619 43.9351 47.619 43.6858V33.2794L50.3986 32.0774V41.621C50.3986 42.3295 50.973 42.9039 51.6815 42.9039C52.39 42.9039 52.9644 42.3295 52.9644 41.621V30.1283C52.9644 30.1289 52.9644 30.1278 52.9644 30.1283C52.9644 30.1278 52.9644 30.1255 52.9644 30.125C52.9644 29.6133 52.6602 29.1506 52.1907 28.9475L36.3684 22.1054ZM45.0532 34.3889L36.3684 38.1445C36.0434 38.2851 35.6749 38.2851 35.3499 38.1445L26.6651 34.3889V43.2639C26.7462 43.3664 26.8506 43.4928 26.9783 43.6372C27.3562 44.0641 27.9336 44.6418 28.7144 45.2213C30.2698 46.3752 32.6273 47.5344 35.8591 47.5344C39.091 47.5344 41.4484 46.3752 43.0038 45.2213C43.7847 44.6418 44.3621 44.0641 44.74 43.6372C44.8678 43.4928 44.9721 43.3664 45.0532 43.2639V34.3889ZM35.8591 35.5693L23.269 30.125L35.8591 24.6806L48.4493 30.125L35.8591 35.5693Z" fill="#25258E"/>
</svg>
