<svg width="72" height="72" viewBox="0 0 72 72" fill="none" xmlns="http://www.w3.org/2000/svg">
<path fill-rule="evenodd" clip-rule="evenodd" d="M72 36C72 55.882 55.882 72 36 72C16.118 72 0 55.882 0 36C0 16.118 16.118 0 36 0C55.882 0 72 16.118 72 36Z" fill="#F4F4F9"/>
<path opacity="0.3" d="M36 55C46.4934 55 55 46.4934 55 36C55 25.5066 46.4934 17 36 17C25.5066 17 17 25.5066 17 36C17 46.4934 25.5066 55 36 55Z" fill="#9F9FCD"/>
<rect x="39.3047" y="36.8242" width="8.26087" height="13.2174" fill="white"/>
<rect x="25.2617" y="24.4336" width="21.4783" height="12.7217" fill="white"/>
<path d="M26.8902 22.1445C24.9227 22.1445 23.3277 23.7395 23.3277 25.707V38.6495C23.1231 38.9299 22.9575 39.2434 22.8398 39.5834L20.9215 45.125C20.1205 47.4392 21.8392 49.8529 24.288 49.8529H32.4317V47.4779H24.288C23.4718 47.4779 22.8989 46.6734 23.1659 45.902L25.0841 40.3603C25.2497 39.882 25.7002 39.5612 26.2063 39.5612H32.4317V37.1862H25.7027V25.707C25.7027 25.0512 26.2343 24.5195 26.8902 24.5195H45.0985C45.7543 24.5195 46.286 25.0512 46.286 25.707V32.4362H48.661V25.707C48.661 23.7395 47.0659 22.1445 45.0985 22.1445H26.8902Z" fill="#25258E"/>
<path d="M42.0352 45.8956C42.0352 45.1961 42.6023 44.6289 43.3018 44.6289H43.3177C44.0172 44.6289 44.5843 45.1961 44.5843 45.8956C44.5843 46.5951 44.0172 47.1622 43.3177 47.1622H43.3018C42.6023 47.1622 42.0352 46.5951 42.0352 45.8956Z" fill="#25258E"/>
<path fill-rule="evenodd" clip-rule="evenodd" d="M36.9375 38.375C36.9375 36.4075 38.5326 34.8125 40.5 34.8125H46.1368C48.1043 34.8125 49.6993 36.4075 49.6993 38.375V48.2708C49.6993 50.2383 48.1043 51.8333 46.1368 51.8333H40.5C38.5326 51.8333 36.9375 50.2383 36.9375 48.2708V38.375ZM40.5 37.1875C39.8442 37.1875 39.3125 37.7192 39.3125 38.375V48.2708C39.3125 48.9266 39.8442 49.4583 40.5 49.4583H46.1368C46.7926 49.4583 47.3243 48.9266 47.3243 48.2708V38.375C47.3243 37.7192 46.7926 37.1875 46.1368 37.1875H40.5Z" fill="#25258E"/>
<rect x="46.2383" y="31.8711" width="2.39565" height="4.13043" fill="#25258E"/>
</svg>
