<svg width="130" height="34" viewBox="0 0 130 34" fill="none" xmlns="http://www.w3.org/2000/svg">
<path fill-rule="evenodd" clip-rule="evenodd" d="M0.816437 2.47763C0.471437 2.84563 0.273438 3.41762 0.273438 4.15762V30.5676C0.273438 31.3076 0.473437 31.8786 0.816437 32.2466L0.900437 32.3266L15.4044 17.5336V17.1836L0.896438 2.39062L0.816437 2.47763Z" fill="url(#paint0_linear_220_33)"/>
<path fill-rule="evenodd" clip-rule="evenodd" d="M20.2352 22.467L15.4102 17.533V17.183L20.2402 12.25L20.3482 12.314L26.0742 15.635C27.7082 16.578 27.7082 18.131 26.0742 19.08L20.3482 22.401L20.2352 22.467Z" fill="url(#paint1_linear_220_33)"/>
<path fill-rule="evenodd" clip-rule="evenodd" d="M20.3484 22.4034L15.4044 17.3594L0.816406 32.2474C1.35841 32.8294 2.24441 32.8994 3.25041 32.3174L20.3484 22.4034Z" fill="url(#paint2_linear_220_33)"/>
<path fill-rule="evenodd" clip-rule="evenodd" d="M20.3473 12.3144L3.25431 2.39837C2.24731 1.82137 1.36331 1.89237 0.820312 2.47437L15.4033 17.3594L20.3473 12.3144Z" fill="url(#paint3_linear_220_33)"/>
<path d="M33.3877 0C33.8957 0.002 34.3977 0.107 34.8637 0.31C35.2997 0.489 35.6887 0.772 35.9977 1.136L36.0577 1.206L35.3087 1.976L35.2417 1.895C34.7917 1.353 34.1797 1.085 33.3837 1.085C33.0395 1.08142 32.698 1.14733 32.3798 1.27877C32.0616 1.41022 31.7731 1.6045 31.5317 1.85C31.0137 2.362 30.7547 3.025 30.7547 3.843C30.7547 4.663 31.0147 5.331 31.5317 5.843C31.7746 6.08761 32.0639 6.28121 32.3826 6.41241C32.7013 6.54361 33.0431 6.60977 33.3877 6.607C33.7394 6.61662 34.0892 6.55315 34.415 6.42061C34.7409 6.28807 35.0356 6.08934 35.2807 5.837C35.5847 5.526 35.7677 5.1 35.8297 4.554H33.2907V3.494H36.8637L36.8807 3.571C36.9187 3.756 36.9377 3.946 36.9347 4.135C36.9347 5.154 36.6347 5.979 36.0397 6.595C35.3587 7.32 34.4727 7.685 33.3897 7.685C32.8963 7.69269 32.4065 7.59904 31.9506 7.40983C31.4948 7.22063 31.0827 6.93989 30.7397 6.585C30.3817 6.2257 30.1002 5.79758 29.9122 5.32648C29.7241 4.85539 29.6335 4.35108 29.6457 3.844C29.6329 3.33806 29.7231 2.8348 29.9108 2.3648C30.0986 1.89481 30.3799 1.46789 30.7377 1.11C31.0793 0.752663 31.491 0.469715 31.947 0.278883C32.403 0.0880514 32.8935 -0.00655213 33.3877 0.001V0ZM64.9177 0.004C65.4114 -0.00657685 65.9016 0.0877963 66.356 0.280874C66.8104 0.473953 67.2187 0.761333 67.5537 1.124C67.9037 1.48461 68.1783 1.91128 68.3617 2.37912C68.5451 2.84697 68.6335 3.34664 68.6217 3.849C68.6332 4.35019 68.5454 4.84869 68.3635 5.31583C68.1816 5.78298 67.9091 6.20955 67.5617 6.571C67.2247 6.93233 66.8151 7.21836 66.3598 7.41034C65.9045 7.60232 65.4137 7.69592 64.9197 7.685C63.8657 7.685 62.9837 7.313 62.2797 6.571C61.9313 6.20973 61.6578 5.783 61.4752 5.31545C61.2926 4.84791 61.2044 4.34882 61.2157 3.847C61.2037 3.34443 61.2915 2.84447 61.4739 2.37604C61.6564 1.90761 61.9299 1.48001 62.2787 1.118C62.9887 0.375 63.8697 0.003 64.9177 0.004ZM42.3297 0.164V1.241H39.1357V3.313H42.0147V4.373H39.1347V6.444H42.3287V7.521H38.0407V0.164H42.3297ZM48.0967 0.164V1.241H46.1357V7.521H45.0407V1.241H43.0807V0.164H48.0957H48.0967ZM52.7467 0.164V7.521H51.3957V0.164H52.7467ZM58.4537 0.164V1.241H56.4907V7.521H55.4027V1.241H53.4367V0.164H58.4537ZM70.9457 0.164L74.2407 5.542L74.2097 4.455V0.165H75.3037V7.52H74.2127L70.7557 1.87L70.7867 2.962V7.521H69.6997V0.164H70.9447H70.9457ZM63.0797 1.853C62.5787 2.371 62.3257 3.035 62.3257 3.843C62.3257 4.65 62.5777 5.311 63.0807 5.831C63.3199 6.07644 63.6058 6.27151 63.9215 6.40471C64.2373 6.5379 64.5765 6.60652 64.9192 6.60652C65.2619 6.60652 65.6012 6.5379 65.9169 6.40471C66.2327 6.27151 66.5186 6.07644 66.7577 5.831C67.2597 5.313 67.5127 4.649 67.5127 3.842C67.5127 3.035 67.2597 2.372 66.7587 1.854C66.5196 1.60819 66.2336 1.41278 65.9177 1.27932C65.6018 1.14586 65.2624 1.07705 64.9194 1.07695C64.5765 1.07686 64.237 1.14549 63.921 1.27877C63.6051 1.41206 63.319 1.60732 63.0797 1.853ZM61.3537 18.62C58.6037 18.62 56.3587 20.753 56.3587 23.7C56.3587 26.62 58.6037 28.778 61.3537 28.778C64.1037 28.778 66.3537 26.621 66.3537 23.699C66.3577 20.753 64.1117 18.619 61.3537 18.619V18.62ZM61.3537 26.777C59.8447 26.777 58.5477 25.506 58.5477 23.698C58.5477 21.866 59.8447 20.618 61.3537 20.618C62.8627 20.618 64.1647 21.866 64.1647 23.698C64.1697 25.507 62.8647 26.777 61.3537 26.777ZM50.4587 18.619C47.7037 18.619 45.4637 20.753 45.4637 23.699C45.4637 26.621 47.7037 28.778 50.4587 28.778C53.2137 28.778 55.4557 26.621 55.4557 23.699C55.4557 20.753 53.2127 18.619 50.4587 18.619ZM50.4587 26.777C48.9487 26.777 47.6467 25.506 47.6467 23.698C47.6467 21.866 48.9487 20.618 50.4587 20.618C51.9687 20.618 53.2647 21.866 53.2647 23.698C53.2647 25.507 51.9677 26.777 50.4587 26.777ZM37.4917 20.177V22.335H42.5427C42.3947 23.542 42.0007 24.429 41.3947 25.046C40.6567 25.792 39.5087 26.622 37.4917 26.622C34.4247 26.622 31.9387 24.055 31.9387 20.89C31.9387 17.724 34.4247 15.158 37.4917 15.158C38.1965 15.1484 38.8962 15.2795 39.5497 15.5436C40.2032 15.8076 40.7975 16.1994 41.2977 16.696L42.7877 15.176C41.5277 13.945 39.8457 13 37.4927 13C33.2277 13 29.6447 16.542 29.6447 20.89C29.6447 25.237 33.2277 28.78 37.4917 28.78C39.7957 28.78 41.5267 28.004 42.8867 26.565C44.2807 25.143 44.7157 23.142 44.7157 21.527C44.7192 21.0751 44.681 20.6239 44.6017 20.179H37.4917V20.177ZM90.5207 21.849C90.1097 20.714 88.8407 18.619 86.2567 18.619C83.6967 18.619 81.5657 20.679 81.5657 23.699C81.5657 26.544 83.6757 28.778 86.4977 28.778C88.1597 28.794 89.7177 27.948 90.6477 26.526L88.9497 25.373C88.3837 26.218 87.6127 26.778 86.4967 26.778C85.3817 26.778 84.5947 26.26 84.0867 25.239L90.7447 22.429L90.5207 21.849ZM83.7307 23.541C83.6747 21.583 85.2217 20.58 86.3307 20.58C87.1997 20.58 87.9397 21.022 88.1827 21.658L83.7307 23.541ZM78.3197 28.466H80.5087V13.54H78.3187V28.465L78.3197 28.466ZM74.7347 19.748H74.6617C74.1717 19.154 73.2317 18.617 72.0447 18.617C69.5517 18.617 67.2717 20.85 67.2717 23.709C67.2717 26.569 69.5517 28.771 72.0447 28.771C73.2327 28.771 74.1697 28.231 74.6617 27.618H74.7347V28.355C74.7347 30.297 73.7187 31.345 72.0777 31.345C70.7407 31.345 69.9107 30.359 69.5677 29.531L67.6647 30.341C68.4127 32.169 70.1547 33.351 72.0767 33.337C74.6427 33.337 76.8077 31.796 76.8077 28.047V18.928H74.7347V19.75V19.748ZM72.2317 26.774C70.7237 26.774 69.4617 25.486 69.4617 23.712C69.4617 21.939 70.7237 20.612 72.2317 20.612C73.7187 20.612 74.8907 21.919 74.8907 23.712C74.8907 25.506 73.7187 26.778 72.2317 26.778V26.774ZM100.767 13.538H95.5317V28.466H97.7147V22.812H100.767C103.191 22.812 105.569 21.022 105.569 18.176C105.569 15.33 103.185 13.541 100.767 13.541V13.538ZM100.824 20.733H97.7137V15.617H100.824C101.271 15.6062 101.713 15.7175 102.102 15.939C102.491 16.1604 102.813 16.4837 103.032 16.874C103.492 17.678 103.492 18.675 103.032 19.478C102.813 19.8685 102.491 20.192 102.102 20.4136C101.713 20.6352 101.271 20.7467 100.824 20.736V20.733ZM114.316 18.588C112.739 18.588 111.1 19.298 110.425 20.874L112.362 21.702C112.779 20.874 113.542 20.605 114.356 20.605C115.489 20.605 116.637 21.299 116.654 22.525V22.682C115.955 22.3 115.17 22.1012 114.374 22.104C112.287 22.104 110.161 23.276 110.161 25.463C110.161 27.463 111.871 28.751 113.791 28.751C115.261 28.751 116.071 28.075 116.579 27.288H116.654V28.442H118.762V22.718C118.763 20.072 116.826 18.591 114.316 18.591V18.588ZM114.053 26.768C113.339 26.768 112.343 26.408 112.343 25.505C112.343 24.349 113.584 23.906 114.657 23.906C115.623 23.906 116.07 24.128 116.653 24.408C116.479 25.754 115.37 26.763 114.053 26.771V26.768ZM126.443 18.918L123.934 25.39H123.859L121.265 18.918H118.906L122.804 27.961L120.58 32.993H122.86L128.866 18.918H126.443ZM106.767 28.466H108.956V13.54H106.767V28.466Z" fill="white"/>
<defs>
<linearGradient id="paint0_linear_220_33" x1="918.271" y1="2861.04" x2="-334.994" y2="1567.26" gradientUnits="userSpaceOnUse">
<stop stop-color="#00A0FF"/>
<stop offset="0.01" stop-color="#00A1FF"/>
<stop offset="0.26" stop-color="#00BEFF"/>
<stop offset="0.51" stop-color="#00D2FF"/>
<stop offset="0.76" stop-color="#00DFFF"/>
<stop offset="1" stop-color="#00E3FF"/>
</linearGradient>
<linearGradient id="paint1_linear_220_33" x1="1295.61" y1="523.928" x2="-1529.54" y2="523.928" gradientUnits="userSpaceOnUse">
<stop stop-color="#FFE000"/>
<stop offset="0.41" stop-color="#FFBD00"/>
<stop offset="0.78" stop-color="#FFA500"/>
<stop offset="1" stop-color="#FF9C00"/>
</linearGradient>
<linearGradient id="paint2_linear_220_33" x1="714.32" y1="761.849" x2="-1419.96" y2="-1441.47" gradientUnits="userSpaceOnUse">
<stop stop-color="#FF3A44"/>
<stop offset="1" stop-color="#C31162"/>
</linearGradient>
<linearGradient id="paint3_linear_220_33" x1="-1332.72" y1="2101.84" x2="-379.516" y2="1117.81" gradientUnits="userSpaceOnUse">
<stop stop-color="#32A071"/>
<stop offset="0.07" stop-color="#2DA771"/>
<stop offset="0.48" stop-color="#15CF74"/>
<stop offset="0.8" stop-color="#06E775"/>
<stop offset="1" stop-color="#00F076"/>
</linearGradient>
</defs>
</svg>
